# xmcd
# 
# Track frame offsets:
#     150
#     21033
#     39335
#     60380
#     78578
#     97279
#     120126
#     140332
#     161532
# 
# Disc length: 2480
# 
# Revision: 6
# Processed by: cddbd v1.5.2PL0 Copyright (c) Steve Scherf et al.
# Submitted via: fre:ac v1.0.31
# 
DISCID=6709ae09
DTITLE=The J. Geils Band - Hotline
DYEAR=1975
DGENRE=Rock/Pop
TTITLE0=Love-Itis
TTITLE1=Easy Way Out
TTITLE2=Think It Over
TTITLE3=Be Careful (What You Do)
TTITLE4=Jealous Love
TTITLE5=Mean Love
TTITLE6=Orange Driver
TTITLE7=Believe In Me
TTITLE8=Fancy Footwork
EXTD=
EXTT0=
EXTT1=
EXTT2=
EXTT3=
EXTT4=
EXTT5=
EXTT6=
EXTT7=
EXTT8=
PLAYORDER=
